<svg viewBox="0 0 575 575"><g transform="rotate(0 0 0)"><svg viewBoxSize="575" data-root-id="6770166420433" xmlns="http://www.w3.org/2000/svg" xmlns:xlink="http://www.w3.org/1999/xlink" version="1.1" id="qqqq_1" x="0" y="133.401" viewBox="1421.449951171875 918.75 2157.090087890625 1162.509765625" xml:space="preserve" height="308.1978759765625" width="571.8752518400718" preserveAspectRatio="xMinYMin" zoom="1" editorType="buyer" data-layer-role="icon" style="position: absolute; height: 308.198px; width: 571.875px; top: 133.401px; left: 0px;"><path class="st0" d="M3096.19,1434.84v132.41c-80.48-33.52-138.81-121.5-171.99-185    C2967.3,1413.89,3029.49,1445.65,3096.19,1434.84z"  zoom="1" style="fill: rgb(206, 146, 92);"></path><path class="st0" d="M3096.19,1661.08v197.35c-43.99-38.7-107.28-61.96-160.42-81.37l-16.76-6.17    c-80.15-29.88-169.46-54.46-281.14-77.51c-135.39-28-247.07-102.2-327.23-216.2c58.54,38.26,150.94,88.2,263.72,113.45    c46.75,10.36,93.49,15.66,138.7,15.66C2900.16,1606.28,3036.76,1642,3096.19,1661.08z"  zoom="1" data-layer-id="8251545620433" style="fill: rgb(206, 146, 92);"></path><path class="st1" d="M3096.19,1602.76v23.7c-65.71-20.18-201.43-53.25-383.13-53.25c-34.4,0-69.79-3.42-105.4-9.81    c42.45-52.7,159.42-188.97,259.2-225.58c9.15,22.27,28.67,66.04,58.1,111.91C2976.34,1529.88,3033.79,1581.26,3096.19,1602.76z"  zoom="1" data-layer-id="9366372920433" style="fill: rgb(226, 201, 175);"></path><path class="st1" d="M3076.45,1885H1816.49c47.74-27.12,118.74-71.22,192.06-130.32c119.73-96.58,202.64-197.9,246.96-301.76    c85.89,145.64,214.99,239.69,375.63,272.76c110.03,22.71,197.79,46.97,276.4,76.18l16.87,6.28    C2975.68,1826.9,3037.09,1849.39,3076.45,1885z"  zoom="1"  style="fill: rgb(226, 201, 175);"></path><path class="st2" d="M2673.81,1439.36c-49.06,49.5-87.54,97.24-102.42,116.54c-179.38-43.11-306.17-152.92-306.72-153.47    l-18.74-18.63l-8.6,24.92c-36.49,105.29-115.54,208.93-235.06,308.27c-33.08-56.12-50.61-119.95-50.61-185.77    c0-202.31,164.61-366.92,366.92-366.92C2487.27,1164.28,2632.03,1276.96,2673.81,1439.36z"  zoom="1" data-layer-id="6346856620433" style="fill: rgb(233, 78, 27);"></path><path d="M3118.24,1873.98v-720.72h364.94v-33.08h-364.94V918.75h-33.08v201.43H1719.58v-119.73h-33.08v119.73h-174.2v33.08h174.2   v720.72h-265.05v33.08h265.05v174.2h33.08v-174.2h1365.58v174.2h33.08v-174.2h460.3v-33.08H3118.24z M1719.58,1873.98v-720.72   h428.88c-141.67,61.63-240.9,202.86-240.9,366.92c0,73.54,20.07,144.54,57.88,206.72c-108.05,85-210.91,137.59-229.99,147.08   H1719.58z M2307.55,1153.26c168.69,0,313.45,112.68,355.23,275.08c-49.06,49.5-87.54,97.24-102.42,116.54   c-179.38-43.11-306.17-152.92-306.72-153.47l-18.74-18.63l-8.6,24.92c-36.49,105.29-115.54,208.93-235.06,308.27   c-33.08-56.12-50.61-119.95-50.61-185.77C1940.64,1317.86,2105.24,1153.26,2307.55,1153.26z M1805.47,1873.98   c47.74-27.12,118.74-71.22,192.06-130.32c119.73-96.58,202.64-197.9,246.96-301.76c85.89,145.64,214.99,239.69,375.63,272.76   c110.03,22.71,197.79,46.97,276.4,76.18l16.87,6.28c51.27,18.74,112.68,41.23,152.04,76.85H1805.47z M3085.16,1847.4   c-43.99-38.7-107.28-61.96-160.42-81.37l-16.76-6.17c-80.15-29.88-169.46-54.46-281.14-77.51c-135.39-28-247.07-102.2-327.23-216.2   c58.54,38.26,150.94,88.2,263.72,113.45c46.75,10.36,93.49,15.66,138.7,15.66c187.1,0,323.7,35.72,383.13,54.8V1847.4z    M3085.16,1615.43c-65.71-20.18-201.43-53.25-383.13-53.25c-34.4,0-69.79-3.42-105.4-9.81c42.45-52.7,159.42-188.97,259.2-225.58   c9.15,22.27,28.67,66.04,58.1,111.91c51.38,80.15,108.82,131.53,171.22,153.03V1615.43z M3085.16,1556.23   c-80.48-33.52-138.81-121.5-171.99-185c43.11,31.64,105.29,63.4,171.99,52.59V1556.23z M3085.16,1390.19   c-97.35,19.51-190.96-77.18-205.18-92.61l-0.11-0.22l-1.1-1.1c-0.33-0.44-0.66-0.77-0.66-0.77l-6.84-7.94l-10.03,2.76   c-57,15.55-118.52,62.07-171.44,111.8c-34.95-113.89-117.2-203.31-222.16-248.84h617.52V1390.19z"  zoom="1" data-layer-id="8167426520433"></path></svg></g><g transform="rotate(0 0 0)"><svg viewBoxSize="575" data-root-id="7907589820433" xmlns="http://www.w3.org/2000/svg" y="342.11000061035156" viewBox="0 0 0 0" x="285.50000076293946" height="0" width="0" fontUrl="http://fonts.gstatic.com/s/abel/v18/MwQ5bhbm2POE6VhLPJp6qGI.ttf" zoom="1" editorType="buyer" data-layer-role="slogan" style="position: absolute; top: 342.11px; width: 0px; height: 0px; left: 285.5px;"><g data-horizontal-grow="center" zoom="1" root="[object Object]" style="fill: rgb(0, 0, 0);"><path d="" transform="translate(0, 0)"></path></g></svg></g><g transform="rotate(0 0 0)"><svg viewBoxSize="575" data-root-id="1725943420433" xmlns="http://www.w3.org/2000/svg" y="552.22" viewBox="1.059999942779541 5.409999847412109 66.76000213623047 22.780000686645508" x="0" height="22.780000686645508" width="66.76000213623047" fontUrl="http://fonts.gstatic.com/s/bellefair/v14/kJExBuYY6AAuhiXUxG19__A2pOdvDA.ttf" zoom="1" editorType="buyer" data-layer-role="brandName" style="position: absolute; top: 552.22px; width: 66.76px; height: 22.78px; left: 0px;"><g data-horizontal-grow="center" zoom="1" root="[object Object]" style="fill: rgb(0, 0, 0);"><path d="M4.74 7.07Q3.33 7.07 2.40 7.62Q1.47 8.16 1.06 8.99L1.06 8.99L1.50 5.79L16.67 5.79L17.12 8.99Q16.70 8.16 15.78 7.62Q14.85 7.07 13.44 7.07L13.44 7.07L10.24 7.07L10.24 24.83Q10.24 26.11 10.56 26.78Q10.88 27.46 11.26 27.68Q11.65 27.90 11.65 27.81L11.65 27.81L6.56 27.81Q6.56 27.90 6.94 27.68Q7.33 27.46 7.63 26.80Q7.94 26.14 7.94 24.83L7.94 24.83L7.94 7.07L4.74 7.07ZM37.72 26.02Q34.71 27.81 29.69 27.81L29.69 27.81L23.38 27.81Q23.38 27.90 23.77 27.63Q24.15 27.36 24.46 26.62Q24.76 25.89 24.76 24.48L24.76 24.48L24.76 8.74Q24.76 7.49 24.46 6.83Q24.15 6.18 23.77 5.95Q23.38 5.73 23.38 5.79L23.38 5.79L29.66 5.79Q34.55 5.79 37.40 7.39L37.40 7.39Q39.93 8.80 41.30 11.20Q42.68 13.60 42.68 16.61L42.68 16.61Q42.68 19.87 41.38 22.26Q40.09 24.64 37.72 26.02L37.72 26.02ZM36.47 8.83Q35.06 7.90 33.46 7.49Q31.86 7.07 29.66 7.07L29.66 7.07L27.06 7.07L27.06 26.53L29.66 26.53Q32.28 26.53 33.96 26.08Q35.64 25.63 36.86 24.70L36.86 24.70Q38.42 23.49 39.27 21.52Q40.12 19.55 40.12 16.93L40.12 16.93Q40.12 14.14 39.14 12.05Q38.17 9.95 36.47 8.83L36.47 8.83ZM67.82 25.86Q66.61 26.85 64.66 27.52Q62.70 28.19 60.72 28.19L60.72 28.19Q57.74 28.19 55.18 26.82Q52.62 25.44 51.07 22.85Q49.52 20.26 49.52 16.77L49.52 16.77Q49.52 13.50 50.94 10.91Q52.37 8.32 55.01 6.86Q57.65 5.41 61.17 5.41L61.17 5.41Q64.91 5.41 67.82 7.04L67.82 7.04L67.82 10.59Q66.83 8.83 64.94 7.79Q63.06 6.75 60.91 6.75L60.91 6.75Q58.19 6.75 56.19 8.03Q54.19 9.31 53.14 11.54Q52.08 13.76 52.08 16.51L52.08 16.51Q52.08 19.62 53.28 21.92Q54.48 24.22 56.53 25.46Q58.58 26.69 61.10 26.69L61.10 26.69Q65.17 26.69 67.82 24.32L67.82 24.32L67.82 25.86Z" transform="translate(0, 0)"></path></g></svg></g></svg>